<svg id="undraw_laravel_and_vue_-59-tp" xmlns="http://www.w3.org/2000/svg" width="1500" height="1500" viewBox="0 0 1500 1500">
  <g id="undraw_laravel_and_vue_-59-tp-2" data-name="undraw_laravel_and_vue_-59-tp">
    <rect id="Rectangle_2484" data-name="Rectangle 2484" width="1500" height="1500" fill="#fff" opacity="0"/>
    <path id="Path_22351" data-name="Path 22351" d="M1132.46,621.593c-55.74-218.984-248.349-377.06-474.428-383.4-119.52-3.352-245.29,36.25-336.859,174.833-163.69,247.733,10.059,418.923,131.192,500.269A757.69,757.69,0,0,1,609.033,1053.97c81.822,97.01,239.228,217.55,426.687,28.68C1171.6,945.759,1169.59,767.457,1132.46,621.593Z" fill="#f2f2f2"/>
    <path id="Path_22352" data-name="Path 22352" d="M1283.76,1109.26c0,53.75-234.79,153.74-530.537,153.74S214,1169.21,214,1115.46s243.475-47.11,539.223-47.11S1283.76,1055.51,1283.76,1109.26Z" fill="#3f3d56"/>
    <path id="Path_22353" data-name="Path 22353" d="M1283.76,1109.26c0,53.75-234.79,153.74-530.537,153.74S214,1169.21,214,1115.46s243.475-47.11,539.223-47.11S1283.76,1055.51,1283.76,1109.26Z" opacity="0.1"/>
    <path id="Path_22354" data-name="Path 22354" d="M749.5,1212.17c295.75,0,535.5-43.58,535.5-97.33s-239.75-97.33-535.5-97.33S214,1061.09,214,1114.84,453.752,1212.17,749.5,1212.17Z" fill="#3f3d56"/>
    <path id="Path_22355" data-name="Path 22355" d="M952.232,783.828v260.3l43.581,70.95,3.317,5.4h171.96l3.47-336.652Z" fill="#2f2e41"/>
    <path id="Path_22356" data-name="Path 22356" d="M952.232,783.828v260.3l43.581,70.95,2.674-331.252Z" opacity="0.1"/>
    <path id="Path_22357" data-name="Path 22357" d="M537.1,776.887v260.3l-43.581,70.95-3.317,5.4H318.238l-3.473-336.653Z" fill="#2f2e41"/>
    <path id="Path_22358" data-name="Path 22358" d="M537.1,776.887v260.3l-43.581,70.95L490.84,776.887Z" opacity="0.1"/>
    <path id="Path_22359" data-name="Path 22359" d="M1226.67,771.68V787.3H292.184V764.739l86.848-45.118H1150.24Z" fill="#2f2e41"/>
    <path id="Path_22360" data-name="Path 22360" d="M1226.67,771.679V787.3H292.184V764.738Z" opacity="0.1"/>
    <path id="Path_22361" data-name="Path 22361" d="M425.93,849.769H384.243l-17.369-12.148h78.163Z" opacity="0.1"/>
    <path id="Path_22362" data-name="Path 22362" d="M425.93,900.093H384.243l-17.369-12.148h78.163Z" opacity="0.1"/>
    <path id="Path_22363" data-name="Path 22363" d="M425.93,971.242H384.243l-17.369-12.148h78.163Z" opacity="0.1"/>
    <path id="Path_22364" data-name="Path 22364" d="M425.93,1042.39H384.243l-17.369-12.14h78.163Z" opacity="0.1"/>
    <path id="Path_22365" data-name="Path 22365" d="M1063.4,856.713h41.68l17.37-12.147h-78.16Z" opacity="0.1"/>
    <path id="Path_22366" data-name="Path 22366" d="M1063.4,907.037h41.68l17.37-12.146h-78.16Z" opacity="0.1"/>
    <path id="Path_22367" data-name="Path 22367" d="M1063.4,978.186h41.68l17.37-12.147h-78.16Z" opacity="0.1"/>
    <path id="Path_22368" data-name="Path 22368" d="M1063.4,1049.33h41.68l17.37-12.15h-78.16Z" opacity="0.1"/>
    <path id="Path_22369" data-name="Path 22369" d="M874.862,676.2l-5.794,36.957s-28.523,15.139-8.468,15.584,114.541,0,114.541,0,18.273,0-10.7-16.029l-5.794-38.738Z" fill="#3f3d56"/>
    <path id="Path_22370" data-name="Path 22370" d="M856.566,728.335a78.884,78.884,0,0,1,12.5-8.268l5.794-36.957,83.788.079,5.794,36.433a76.129,76.129,0,0,1,13.389,8.8c3.72-.848,7.786-4-13.389-15.716l-5.794-38.738L874.863,676.2l-5.794,36.957S845.1,725.875,856.566,728.335Z" opacity="0.1"/>
    <path id="Path_22371" data-name="Path 22371" d="M1091.79,418.609H740.836a13.266,13.266,0,0,0-13.272,13.26V668.054a13.265,13.265,0,0,0,13.272,13.26H1091.79a13.264,13.264,0,0,0,13.27-13.26V431.869A13.264,13.264,0,0,0,1091.79,418.609Z" fill="#3f3d56"/>
    <path id="Path_22372" data-name="Path 22372" d="M1092.36,432.637H740.266V629.443H1092.36Z" fill="#f2f2f2"/>
    <path id="Path_22373" data-name="Path 22373" d="M916.311,428.628a2.226,2.226,0,1,0-2.228-2.226A2.226,2.226,0,0,0,916.311,428.628Z" fill="#f2f2f2"/>
    <path id="Path_22374" data-name="Path 22374" d="M1105.06,645.027v23.029a13.239,13.239,0,0,1-3.89,9.377,13.3,13.3,0,0,1-9.38,3.883H740.836a13.261,13.261,0,0,1-13.272-13.26V645.027Z" fill="#3f3d56"/>
    <path id="Path_22375" data-name="Path 22375" d="M916.311,671.744a8.46,8.46,0,1,0-8.468-8.46A8.463,8.463,0,0,0,916.311,671.744Z" fill="#f2f2f2"/>
    <path id="Path_22376" data-name="Path 22376" d="M903.115,752.779v4.453H663.337V753.67l.331-.891,5.909-16.029H898.213Z" fill="#3f3d56"/>
    <path id="Path_22377" data-name="Path 22377" d="M995.389,748.421c-.436,1.866-2.085,3.834-5.811,5.7-13.371,6.679-40.558-1.781-40.558-1.781s-20.947-3.562-20.947-12.912a16.666,16.666,0,0,1,1.836-1.091c5.622-2.971,24.26-10.3,57.308.31a13.788,13.788,0,0,1,6.282,4.113,6.564,6.564,0,0,1,1.89,5.666Z" fill="#3f3d56"/>
    <path id="Path_22378" data-name="Path 22378" d="M995.389,748.421c-16.365,6.265-30.952,6.733-45.923-3.655-7.55-5.236-14.409-6.532-19.556-6.434,5.621-2.971,24.259-10.3,57.308.31a13.79,13.79,0,0,1,6.281,4.113,6.556,6.556,0,0,1,1.89,5.666Z" opacity="0.1"/>
    <path id="Path_22379" data-name="Path 22379" d="M974.87,744.765c3.2,0,5.794-.8,5.794-1.781s-2.594-1.781-5.794-1.781-5.794.8-5.794,1.781S971.67,744.765,974.87,744.765Z" fill="#f2f2f2"/>
    <path id="Path_22380" data-name="Path 22380" d="M903.115,752.781v4.454H663.337v-3.562l.331-.892Z" opacity="0.1"/>
    <path id="Path_22381" data-name="Path 22381" d="M1040.14,525.582c-1.89-1.89-26.17-32.445-30.27-37.485-4.41-5.04-6.31-4.095-9.14-3.78s-33.425,5.67-36.893,5.985c-3.469.63-5.676,1.89-3.469,5.04,1.892,2.835,22.071,31.185,26.485,37.8l-80.4,19.215-63.69-106.785c-2.522-3.78-3.153-5.04-8.828-4.725s-50.133,4.1-53.286,4.1c-3.153.315-6.621,1.575-3.468,9.135s53.6,115.92,54.862,119.07,5.045,8.19,13.558,6.3c8.828-2.205,39.1-10.079,55.808-14.49,8.828,15.75,26.485,47.881,29.953,52.606,4.414,6.3,7.567,5.04,14.188,3.15,5.36-1.575,82.611-29.3,86.081-30.871s5.67-2.519,3.15-5.985c-1.89-2.52-22.07-29.925-32.79-44.1,7.25-1.89,33.42-8.82,36.26-9.765,3.15-.945,3.78-2.52,1.89-4.41ZM894.156,555.508c-.946.315-46.034,11.025-48.241,11.655-2.522.63-2.522.315-2.522-.63-.631-.945-53.6-110.566-54.547-111.826-.631-1.26-.631-2.52,0-2.52s42.565-3.78,43.826-3.78c1.577,0,1.262.315,1.892,1.26,0,0,58.961,101.745,59.907,103.32,1.261,1.575.631,2.205-.315,2.52Zm126.754,23.625c.63,1.26,1.57,1.89-.95,2.52-2.21.945-75.987,25.83-77.564,26.46s-2.522.945-4.414-1.89-25.854-44.1-25.854-44.1l78.509-20.475c1.892-.63,2.522-.945,3.784.945,1.261,2.205,25.859,35.6,26.489,36.541Zm5.04-55.441c-1.89.315-30.584,7.56-30.584,7.56l-23.647-32.13c-.63-.945-1.261-1.89.315-2.205s28.376-5.04,29.636-5.355,2.21-.63,3.79,1.575c1.57,1.89,21.75,27.72,22.7,28.665s-.32,1.575-2.21,1.89Z" fill="#fb503b"/>
    <path id="Path_22382" data-name="Path 22382" d="M703.755,478.707a47.42,47.42,0,1,0-47.465-47.42A47.442,47.442,0,0,0,703.755,478.707Z" fill="#ffb9b9"/>
    <path id="Path_22383" data-name="Path 22383" d="M668.781,455v74.874h77.442s-9.992-62.395-5-81.113Z" fill="#ffb9b9"/>
    <path id="Path_22384" data-name="Path 22384" d="M822.417,556.075s-73.7-36.189-73.7-38.685-7.494-18.719-12.49-18.719-47.465-13.727-71.2,6.24l-2.5,16.222-91.182,59.9,24.981,91.1s16.238,17.47,11.242,29.949,3.747,76.122,3.747,76.122l196.1-6.239V687.1s6.245-19.967,9.992-26.206,0-24.958,0-24.958L847.4,598.5S843.651,563.562,822.417,556.075Z" fill="#d0cde1"/>
    <path id="Path_22385" data-name="Path 22385" d="M574.475,611.6l5.621-30.574S547.62,722.044,551.367,738.266s31.227,41.181,34.975,42.429,38.721-107.319,38.721-107.319Z" opacity="0.1"/>
    <path id="Path_22386" data-name="Path 22386" d="M592.587,577.289l-21.234,3.744s-32.476,141.012-28.729,157.235,31.227,41.18,34.974,42.428S616.32,673.377,616.32,673.377Z" fill="#d0cde1"/>
    <path id="Path_22387" data-name="Path 22387" d="M829.287,619.094,839.9,598.5s14.989,141.012,5,154.739-49.521,18.863-49.521,18.863l-.442-102.472Z" opacity="0.1"/>
    <path id="Path_22388" data-name="Path 22388" d="M831.16,582.281,847.4,598.5s14.989,141.012,5,154.739-49.521,18.863-49.521,18.863l-.442-102.472Z" fill="#d0cde1"/>
    <path id="Path_22389" data-name="Path 22389" d="M588.84,796.917s-36.223-13.726-42.469,12.479S561.36,952.9,561.36,952.9s13.74,88.606,22.484,91.1,47.465,3.74,53.71-7.49-18.736-126.034-18.736-126.034l144.893-2.5s-8.744,99.83-13.74,108.57-5,38.68,0,38.68,59.955-2.49,63.7-9.98,24.981-175.955,24.981-175.955,17.487-58.651-2.5-54.907S588.84,796.917,588.84,796.917Z" fill="#3f3d56"/>
    <path id="Path_22390" data-name="Path 22390" d="M802.432,1040.26s12.49-8.74,18.736,0,8.743,18.72-18.736,33.69-48.714,11.23-48.714,8.74V1046.5Z" fill="#2f2e41"/>
    <path id="Path_22391" data-name="Path 22391" d="M586.342,1036.52s-12.491-8.74-18.736,0-8.744,18.71,18.736,33.69,48.714,11.23,48.714,8.73v-36.19Z" fill="#2f2e41"/>
    <path id="Path_22392" data-name="Path 22392" d="M704.063,371.493a40.183,40.183,0,0,0-13.941,1.985,53.855,53.855,0,0,0-9.932,5.25l-20.955,13.018a9.8,9.8,0,0,0-5.915,9.138L650.7,420.476c-.66,4.944-1.27,10.232.946,14.7,1.849,3.731,5.375,6.284,8.275,9.274a34.028,34.028,0,0,1,8.98,17.434c1.5,8.18.54,18.03,7.019,23.25,3.509,2.827,8.291,3.362,12.79,3.624a191.027,191.027,0,0,0,36.859-1.417,14.67,14.67,0,0,0,5.569-1.559c2.2-1.3,3.59-3.6,4.886-5.8,4.679-7.96,9.5-16.427,9.452-25.658-.026-4.566-1.2-9.471,1-13.476a52.624,52.624,0,0,1,3.769-4.892c2.718-3.814,3.247-8.716,3.689-13.377,1.415-14.889-.064-26.22-11.047-36.708C732.635,376.079,718.046,371.583,704.063,371.493Z" fill="#2f2e41"/>
    <path id="Path_22393" data-name="Path 22393" d="M587.469,944.344,545.782,1156.05h20.843l39.951-208.235Z" fill="#2f2e41"/>
    <path id="Path_22394" data-name="Path 22394" d="M721.215,961.7l26.055,242.95h17.369L749.006,954.758Z" fill="#2f2e41"/>
    <path id="Path_22395" data-name="Path 22395" d="M792.431,954.756l36.476,161.384h17.369L811.537,951.285Z" fill="#2f2e41"/>
    <path id="Path_22396" data-name="Path 22396" d="M653.474,954.758l-5.211,128.412h13.9L672.58,954.758Z" fill="#2f2e41"/>
    <path id="Path_22397" data-name="Path 22397" d="M557.94,921.786S530.149,736.106,608.312,730.9s189.329,0,189.329,0,64.268-5.206,45.162,190.886c0,0,17.369,57.265-138.958,52.059S557.94,921.786,557.94,921.786Z" fill="#ff639d"/>
    <path id="Path_22398" data-name="Path 22398" d="M1270.11,997.613c0,32.377-19.27,43.687-43.04,43.687s-43.03-11.31-43.03-43.687,43.03-73.57,43.03-73.57S1270.11,965.234,1270.11,997.613Z" fill="#ff639d"/>
    <path id="Path_22399" data-name="Path 22399" d="M1225.95,1009.25l18.34-33.528L1226.02,1005l.19-12.189,12.65-24.255-12.59,21.03.35-21.914,13.54-19.309-13.48,15.863.22-40.183-1.34,50.917L1211.85,954l13.55,25.258-1.29,24.474-.03-.65-15.87-22.147,15.82,24.447-.16,3.06-.03.04.01.25-3.25,32.66h4.35l.52-2.63,15.78-24.39-15.74,21.97Z" fill="#3f3d56"/>
    <path id="Path_22400" data-name="Path 22400" d="M1254.56,1111.53h-51.31l-13.26-74.87h74.94Z" fill="#2f2e41"/>
    <path id="Path_22401" data-name="Path 22401" d="M500.675,605.367H393.948V730.378H500.675Z" fill="#3f3d56"/>
    <path id="Path_22402" data-name="Path 22402" d="M484.115,624.766H410.509V710.98h73.606Z" fill="#f2f2f2"/>
    <path id="Path_22403" data-name="Path 22403" d="M454.689,643.074l-7.475,12.934-7.475-12.934H414.85l32.364,56.005,32.364-56.005Z" fill="#4dba87"/>
    <path id="Path_22404" data-name="Path 22404" d="M454.689,643.074l-7.475,12.934-7.475-12.934H427.8l19.419,33.6,19.418-33.6Z" fill="#435466"/>
  </g>
  <g id="Group_589" data-name="Group 589" transform="translate(543.066 311.492)">
    <path id="Path_22521" data-name="Path 22521" d="M0,0H117.139V3.595a11.768,11.768,0,0,1-11.768,11.768h-93.6A11.768,11.768,0,0,1,0,3.595Z" transform="translate(606.084 407.345) rotate(180)" fill="#e6e6e6"/>
    <path id="Path_22522" data-name="Path 22522" d="M782.5,564.493l3.562-1.435c-37.273-92.517-33.682-209.236-2.174-309.359a62.521,62.521,0,0,0-18.214-66.146,60.7,60.7,0,0,0-65.8-10.377c-22.014,9.792-25.048,26.849-25.048,43.823h3.841c0-18.119,3.872-31.908,22.769-40.314a56.909,56.909,0,0,1,61.684,9.733,58.721,58.721,0,0,1,17.108,62.127C748.355,353.825,744.974,471.345,782.5,564.493Z" transform="translate(-237.728 -171.793)" fill="#e6e6e6"/>
    <circle id="Ellipse_1511" data-name="Ellipse 1511" cx="13.442" cy="13.442" r="13.442" transform="translate(426.535 78.971)" fill="#e6e6e6"/>
    <path id="Path_22523" data-name="Path 22523" d="M649.407,320.142v-25.47h3.96v25.47a5.28,5.28,0,1,1-3.96,0Z" transform="translate(-230.132 -204.295)" fill="#2f2e41"/>
    <path id="Path_22524" data-name="Path 22524" d="M624.565,260.126a22.109,22.109,0,0,1,22.084-22.084h36.486a22.084,22.084,0,1,1,0,44.167H646.648A22.109,22.109,0,0,1,624.565,260.126Z" transform="translate(-224.434 -189.316)" fill="#ff639d"/>
  </g>
</svg>
