<svg id="undraw_hello_re_3evm" xmlns="http://www.w3.org/2000/svg" xmlns:xlink="http://www.w3.org/1999/xlink" width="1500" height="1500" viewBox="0 0 1500 1500">
  <defs>
    <clipPath id="clip-path">
      <rect id="Rectangle_2424" data-name="Rectangle 2424" width="1275" height="553" transform="translate(112 474)" fill="#fff"/>
    </clipPath>
  </defs>
  <g id="undraw_hello_re_3evm-2" data-name="undraw_hello_re_3evm">
    <rect id="Rectangle_2423" data-name="Rectangle 2423" width="1500" height="1500" fill="#fff" opacity="0"/>
    <g id="Group_532" data-name="Group 532" clip-path="url(#clip-path)">
      <path id="Path_20335" data-name="Path 20335" d="M1262.09,702.129H514.039a11.974,11.974,0,1,0,0,23.948h21.188V1012.53a11.977,11.977,0,1,0,23.953,0l.182-286.453H1159.75l55.35,286.453a11.98,11.98,0,0,0,23.96,0l3.48-286.453h19.55a11.974,11.974,0,1,0,0-23.948Z" fill="#ccc"/>
      <path id="Path_20336" data-name="Path 20336" d="M643.7,648.773V699.48H516.641a25.369,25.369,0,1,1-1.764-50.707q.882-.03,1.764,0Z" fill="#f2f2f2"/>
      <path id="Path_20337" data-name="Path 20337" d="M646.824,699.092a1.951,1.951,0,0,1-1.951,1.95H514.378a26.719,26.719,0,0,1,0-53.437H644.873a1.95,1.95,0,0,1,.748,3.754,1.937,1.937,0,0,1-.748.147H514.378a22.818,22.818,0,0,0,0,45.636H644.873a1.951,1.951,0,0,1,1.951,1.95Z" fill="#ff639d"/>
      <path id="Path_20338" data-name="Path 20338" d="M643.7,660.475H507.161a.39.39,0,0,1-.281-.662.391.391,0,0,1,.274-.118H643.7a.39.39,0,0,1,0,.78Z" fill="#ccc"/>
      <path id="Path_20339" data-name="Path 20339" d="M643.7,669.839H507.161a.39.39,0,0,1-.281-.663.386.386,0,0,1,.274-.117H643.7a.39.39,0,0,1,0,.78Z" fill="#ccc"/>
      <path id="Path_20340" data-name="Path 20340" d="M643.7,679.2H507.161a.39.39,0,0,1-.007-.78H643.7a.39.39,0,0,1,0,.78Z" fill="#ccc"/>
      <path id="Path_20341" data-name="Path 20341" d="M643.7,688.561H507.161a.39.39,0,0,1-.281-.662.391.391,0,0,1,.274-.118H643.7a.39.39,0,0,1,0,.78Z" fill="#ccc"/>
      <path id="Path_20342" data-name="Path 20342" d="M619.75,595.351v50.707H492.688a25.369,25.369,0,1,1-1.764-50.707q.882-.03,1.764,0Z" fill="#f2f2f2"/>
      <path id="Path_20343" data-name="Path 20343" d="M622.871,645.67a1.949,1.949,0,0,1-1.95,1.95h-130.5a26.718,26.718,0,1,1,0-53.436h130.5a1.95,1.95,0,1,1,0,3.9h-130.5a22.818,22.818,0,1,0,0,45.636h130.5a1.95,1.95,0,0,1,1.95,1.95Z" fill="#3f3d56"/>
      <path id="Path_20344" data-name="Path 20344" d="M619.75,607.053H483.208a.384.384,0,0,1-.276-.112.391.391,0,0,1,.268-.668H619.75a.39.39,0,0,1,0,.78Z" fill="#ccc"/>
      <path id="Path_20345" data-name="Path 20345" d="M619.75,616.417H483.208a.391.391,0,0,1-.393-.387.391.391,0,0,1,.385-.393H619.75a.39.39,0,0,1,0,.78Z" fill="#ccc"/>
      <path id="Path_20346" data-name="Path 20346" d="M619.75,625.776H483.208a.39.39,0,0,1-.008-.78H619.75a.39.39,0,0,1,0,.78Z" fill="#ccc"/>
      <path id="Path_20347" data-name="Path 20347" d="M619.75,635.136H483.208a.391.391,0,0,1-.008-.781H619.75a.391.391,0,0,1,0,.781Z" fill="#ccc"/>
      <path id="Path_20348" data-name="Path 20348" d="M767.562,881.557V837.345a7.368,7.368,0,0,0-7.37-7.368H592.526a7.37,7.37,0,0,0-7.37,7.368v44.212Z" fill="#ccc"/>
      <path id="Path_20349" data-name="Path 20349" d="M767.562,898.137H585.156v57.106H767.562Z" fill="#ccc"/>
      <path id="Path_20350" data-name="Path 20350" d="M585.156,971.824v44.216a7.356,7.356,0,0,0,7.37,7.36H760.192a7.354,7.354,0,0,0,7.37-7.36V971.824Z" fill="#ccc"/>
      <path id="Path_20351" data-name="Path 20351" d="M675.438,863.135a5.527,5.527,0,1,0-5.528-5.527A5.527,5.527,0,0,0,675.438,863.135Z" fill="#fff"/>
      <path id="Path_20352" data-name="Path 20352" d="M675.438,936.822a5.526,5.526,0,1,0-5.528-5.526A5.527,5.527,0,0,0,675.438,936.822Z" fill="#fff"/>
      <path id="Path_20353" data-name="Path 20353" d="M675.734,1008.95a5.527,5.527,0,1,0-5.527-5.53A5.532,5.532,0,0,0,675.734,1008.95Z" fill="#fff"/>
      <path id="Path_20354" data-name="Path 20354" d="M746.882,779.566v50.707H619.82a25.369,25.369,0,0,1-1.766-50.707q.883-.03,1.766,0Z" fill="#f2f2f2"/>
      <path id="Path_20355" data-name="Path 20355" d="M750,829.885a1.95,1.95,0,0,1-1.95,1.95h-130.5a26.719,26.719,0,0,1-.032-53.437H748.053a1.945,1.945,0,0,1,1.382.57,1.952,1.952,0,0,1,0,2.762,1.95,1.95,0,0,1-1.382.569h-130.5a22.818,22.818,0,0,0,0,45.636h130.5a1.949,1.949,0,0,1,1.95,1.95Z" fill="#3f3d56"/>
      <path id="Path_20356" data-name="Path 20356" d="M746.882,791.268H610.339a.383.383,0,0,1-.275-.112.389.389,0,0,1-.006-.55.4.4,0,0,1,.274-.118h136.55a.39.39,0,0,1,0,.78Z" fill="#ccc"/>
      <path id="Path_20357" data-name="Path 20357" d="M746.882,800.632H610.339a.39.39,0,0,1-.007-.78h136.55a.39.39,0,0,1,0,.78Z" fill="#ccc"/>
      <path id="Path_20358" data-name="Path 20358" d="M746.882,809.991H610.339a.39.39,0,0,1-.007-.78h136.55a.39.39,0,0,1,.273.664.389.389,0,0,1-.273.116Z" fill="#ccc"/>
      <path id="Path_20359" data-name="Path 20359" d="M746.882,819.35H610.339a.383.383,0,0,1-.275-.112.389.389,0,0,1-.006-.55.4.4,0,0,1,.274-.118h136.55a.39.39,0,0,1,0,.78Z" fill="#ccc"/>
      <path id="Path_20360" data-name="Path 20360" d="M597.655,578.435H539.764a3.562,3.562,0,0,0-1.584.368l-14.612,7.313a2.663,2.663,0,0,0,0,4.9l14.612,7.313a3.562,3.562,0,0,0,1.584.368h57.891a3.038,3.038,0,0,0,3.206-2.818V581.253a3.038,3.038,0,0,0-3.206-2.818Z" fill="#3f3d56"/>
      <path id="Path_20361" data-name="Path 20361" d="M600.861,581.253V595.88a3.038,3.038,0,0,1-3.206,2.818H586.121V578.435h11.534a3.038,3.038,0,0,1,3.206,2.818Z" fill="#ff639d"/>
      <path id="Path_20362" data-name="Path 20362" d="M250.582,865.037a46.011,46.011,0,0,0,44.428-7.825c15.561-13.058,20.44-34.572,24.41-54.493L331.162,743.8l-24.583,16.924c-17.678,12.17-35.755,24.731-48,42.359S241,844.773,250.834,863.848" fill="#e6e6e6"/>
      <path id="Path_20363" data-name="Path 20363" d="M252.682,936.375c-2.488-18.12-5.046-36.473-3.3-54.787,1.55-16.266,6.513-32.152,16.618-45.178a75.155,75.155,0,0,1,19.285-17.473c1.929-1.217,3.7,1.839,1.783,3.051a71.453,71.453,0,0,0-28.266,34.1c-6.154,15.65-7.142,32.709-6.081,49.334.641,10.053,2,20.04,3.37,30.015a1.831,1.831,0,0,1-1.234,2.173,1.778,1.778,0,0,1-2.174-1.234Z" fill="#f2f2f2"/>
      <path id="Path_20364" data-name="Path 20364" d="M276.647,904.31a33.869,33.869,0,0,0,29.51,15.228c14.939-.709,27.393-11.133,38.6-21.029l33.16-29.272-21.946-1.05c-15.782-.755-31.972-1.46-47,3.406s-28.895,16.577-31.644,32.134" fill="#e6e6e6"/>
      <path id="Path_20365" data-name="Path 20365" d="M245.652,946.794c11.975-21.186,25.866-44.733,50.686-52.258a56.554,56.554,0,0,1,21.32-2.2c2.264.2,1.7,3.683-.561,3.489a52.549,52.549,0,0,0-34.023,9c-9.593,6.529-17.062,15.6-23.384,25.231-3.873,5.895-7.341,12.041-10.811,18.179-1.108,1.961-4.349.545-3.227-1.439Z" fill="#f2f2f2"/>
      <path id="Path_20366" data-name="Path 20366" d="M226.462,969.091a25.639,25.639,0,0,1,15.716-21.476V935.367h20.546V948a25.629,25.629,0,0,1,14.86,21.09l4.831,56.149H221.631Z" fill="#f2f2f2"/>
      <path id="Path_20367" data-name="Path 20367" d="M925.223,700.978l-6.112-2.573-4.193-30.635H859.08l-4.545,30.51-5.469,2.734a1.3,1.3,0,0,0,.581,2.459h75.072a1.3,1.3,0,0,0,.5-2.495Z" fill="#e6e6e6"/>
      <path id="Path_20368" data-name="Path 20368" d="M1024.45,671.843H750.16a5.435,5.435,0,0,1-5.422-5.433V627.738H1029.87V666.41a5.422,5.422,0,0,1-5.42,5.433Z" fill="#ccc"/>
      <path id="Path_20369" data-name="Path 20369" d="M1030.16,646.017H744.487V480.55a6.557,6.557,0,0,1,6.551-6.55H1023.61a6.555,6.555,0,0,1,6.55,6.55Z" fill="#3f3d56"/>
      <path id="Path_20370" data-name="Path 20370" d="M1013.1,634.006H761.549a5.056,5.056,0,0,1-5.05-5.049v-137.9a5.056,5.056,0,0,1,5.05-5.049H1013.1a5.055,5.055,0,0,1,5.05,5.049v137.9a5.055,5.055,0,0,1-5.05,5.049Z" fill="#fff"/>
      <path id="Path_20371" data-name="Path 20371" d="M946.844,682.665a15.123,15.123,0,0,1,23,2.958l34.027-6.048,8.72,19.777-48.173,7.866a15.2,15.2,0,0,1-17.573-24.553Z" fill="#ffb6b6"/>
      <path id="Path_20372" data-name="Path 20372" d="M978.346,707.915l35.474-.442,4.49-.06,72.17-.91s19.59-18.693,36.66-37.939l-2.39-17.3a70.72,70.72,0,0,0-23.7-43.755c-24.44,16.328-38.62,48.648-38.62,48.648l-44.74,10.7-4.48,1.07-27.8,6.643Z" fill="#ff639d"/>
      <path id="Path_20373" data-name="Path 20373" d="M1159.93,814.23h-66.21c0,2.837-72.38,5.139-72.38,5.139a26.476,26.476,0,0,0-4.34,4.111,25.484,25.484,0,0,0-5.96,16.444v4.111a25.706,25.706,0,0,0,25.7,25.693h123.19a25.73,25.73,0,0,0,25.7-25.693v-4.111a25.737,25.737,0,0,0-25.7-25.694Z" fill="#e4e4e4"/>
      <path id="Path_20374" data-name="Path 20374" d="M1111.78,868.711h-26.73V1022.95h26.73Z" fill="#e4e4e4"/>
      <path id="Path_20375" data-name="Path 20375" d="M1008.99,1022c0,2.89,40.5,1.12,90.45,1.12s90.46,1.77,90.46-1.12-40.5-25.777-90.46-25.777S1008.99,1019.12,1008.99,1022Z" fill="#e4e4e4"/>
      <path id="Path_20376" data-name="Path 20376" d="M991.035,1004.38H971.144l-9.462-76.7h29.355Z" fill="#ffb6b6"/>
      <path id="Path_20377" data-name="Path 20377" d="M996.107,1023.66H931.972v-.81a24.966,24.966,0,0,1,24.963-24.963h39.173Z" fill="#2f2e41"/>
      <path id="Path_20378" data-name="Path 20378" d="M932.247,1004.38H912.356l-9.462-76.7h29.355Z" fill="#ffb6b6"/>
      <path id="Path_20379" data-name="Path 20379" d="M937.319,1023.66H873.184v-.81a24.966,24.966,0,0,1,24.963-24.963H937.32Z" fill="#2f2e41"/>
      <path id="Path_20380" data-name="Path 20380" d="M1110.42,562.773a34.578,34.578,0,1,0-34.58-34.578A34.586,34.586,0,0,0,1110.42,562.773Z" fill="#ffb6b6"/>
      <path id="Path_20381" data-name="Path 20381" d="M1166.39,765.111s11.61,61.348-32.54,69.161-107.89,13.3-107.89,13.3L997.342,981.084l-38.451-3.433s5.114-160.714,17.69-173.288,92.059-50.222,92.059-50.222Z" fill="#2f2e41"/>
      <path id="Path_20382" data-name="Path 20382" d="M1080.16,739.4l-19.31,19.368s-139.423,22.454-144.8,54.652c-8.12,48.61-17.712,154.316-17.712,154.316l41.92-3.143L956.7,844.431l67.075-15.254,76.31-41.579Z" fill="#2f2e41"/>
      <path id="Path_20383" data-name="Path 20383" d="M1143.7,507.556c-3.41-6.44-7.75-19.275-14.64-21.655a54.809,54.809,0,0,0-11.79-2.512l-11.72,4.5,6.38-4.957q-1.86-.111-3.72-.181l-7.91,3.038,4.05-3.144c-7.37-.075-14.98.691-20.68,5.175-4.87,3.823-9.69,18.3-10.47,24.442a46.641,46.641,0,0,0,.86,17.613l2,1.9a24.328,24.328,0,0,0,1.57-5,23.7,23.7,0,0,1,11.33-15.368l.11-.061c3.35-1.889,7.43-1.8,11.28-1.664l18.28.658c4.4.158,9.13.437,12.56,3.2a20.66,20.66,0,0,1,5.02,7.276c1.71,3.438,5.04,16.406,5.04,16.406s1.88-2.448,2.78-.626a63.2,63.2,0,0,0,2.63-14.622,28.679,28.679,0,0,0-2.96-14.422Z" fill="#2f2e41"/>
      <path id="Path_20384" data-name="Path 20384" d="M1264.66,543.383a15.119,15.119,0,0,0-11.21,6.163,15.153,15.153,0,0,0-2.48,12.553l-27.81,20.511,8.35,19.937,38.86-29.517a15.2,15.2,0,0,0-5.71-29.647Z" fill="#ffb6b6"/>
      <path id="Path_20385" data-name="Path 20385" d="M1260.18,585.254l-69.71,77.417S1157.12,652,1131.34,640.43l-11.58-35.572a70.755,70.755,0,0,1-3.39-25.6c35.74-9.51,77.32,25.876,77.32,25.876l52.19-40.871Z" fill="#ff639d"/>
      <path id="Path_20386" data-name="Path 20386" d="M1097.5,770.83c-12.44-4.3-25.3-8.738-39.17-10.406l-.6-.072.17-.576c14.36-50.415,10.77-82.666,3.74-131.109a48.923,48.923,0,0,1,28.05-51.418l.09-.039,39.62-2.517.09-.005,28.82,8.473a19.741,19.741,0,0,1,14.14,19.306c-.31,15.931.35,33.719,1.06,52.55,1.57,42.247,3.19,85.932-6.03,114.276l-.05.149-.12.1a47.017,47.017,0,0,1-30.05,10.554C1124.32,780.092,1111.12,775.533,1097.5,770.83Z" fill="#ff639d"/>
      <path id="Path_20387" data-name="Path 20387" d="M1385.16,1027H113.842a1.84,1.84,0,0,1,0-3.68H1385.16a1.84,1.84,0,0,1,0,3.68Z" fill="#ccc"/>
      <path id="Path_25492" data-name="Path 25492" d="M3.711,0C5.76,0,7.422,1.994,7.422,4.453S5.76,8.906,3.711,8.906,0,6.913,0,4.453,1.661,0,3.711,0Z" transform="translate(1086 531)" fill="#2f2e41"/>
      <path id="Path_25506" data-name="Path 25506" d="M3.711,0C5.76,0,7.422,1.994,7.422,4.453S5.76,8.906,3.711,8.906,0,6.913,0,4.453,1.661,0,3.711,0Z" transform="translate(1112.564 531)" fill="#2f2e41"/>
    </g>
  </g>
  <path id="_290115_alarm_clock_schedule_time_timer_icon" data-name="290115_alarm_clock_schedule_time_timer_icon" d="M54.148,17.1c-.42-.735-.868-1.45-1.35-2.142a5.061,5.061,0,1,0-6.931-6.93c-.691-.483-1.406-.93-2.142-1.35A7.594,7.594,0,1,1,54.148,17.1Zm1.139,13.813a25.253,25.253,0,0,1-6.6,17.025l6.236,6.236a1.239,1.239,0,0,1-1.752,1.752L46.938,49.69a25.265,25.265,0,0,1-34.049,0L6.651,55.926A1.239,1.239,0,0,1,4.9,54.173l6.236-6.236A25.363,25.363,0,1,1,55.287,30.912ZM29.912,8.075A22.837,22.837,0,1,0,52.75,30.912,22.838,22.838,0,0,0,29.912,8.075Zm1.269,27.732v11.6a1.269,1.269,0,0,1-2.537,0v-11.6a5.021,5.021,0,0,1-3.073-7.484l-5.447-5.445a1.239,1.239,0,0,1,1.752-1.752l5.447,5.445a5.02,5.02,0,0,1,2.59-.733,5.064,5.064,0,0,1,1.269,9.97Zm-1.269-7.432a2.537,2.537,0,1,0,2.537,2.537A2.538,2.538,0,0,0,29.912,28.375ZM9.612,5.537a5.061,5.061,0,0,0-2.584,9.42c-.483.691-.93,1.407-1.35,2.142A7.593,7.593,0,1,1,16.1,6.678c-.736.42-1.451.867-2.142,1.35A5.054,5.054,0,0,0,9.612,5.537Z" transform="translate(667.014 638.389)" fill="#ff639d" fill-rule="evenodd"/>
</svg>
